<?xml version="1.0" encoding="utf-8"?>
<!-- Generator: Adobe Illustrator 19.0.0, SVG Export Plug-In . SVG Version: 6.00 Build 0)  -->
<svg version="1.1" xmlns="http://www.w3.org/2000/svg" xmlns:xlink="http://www.w3.org/1999/xlink" x="0px" y="0px"
	 viewBox="0 0 500 500" style="enable-background:new 0 0 500 500;" xml:space="preserve">
<style type="text/css">
	.st0{fill:#65A3B2;}
	.st1{font-family:'ArialMT';}
	.st2{font-size:16.077px;}
	.st3{font-family:'LeagueSpartan-Bold';}
	.st4{font-size:85px;}
	.st5{clip-path:url(#XMLID_70_);}
	.st6{fill:#E3A096;}
	.st7{fill:#DF6F62;}
	.st8{fill:#BD493E;}
	.st9{fill:url(#XMLID_72_);}
	.st10{fill:url(#XMLID_73_);}
	.st11{fill:url(#XMLID_74_);}
	.st12{fill:url(#XMLID_75_);}
	.st13{fill:url(#XMLID_76_);}
	.st14{fill:url(#XMLID_77_);}
	.st15{fill:url(#XMLID_78_);}
	.st16{fill:url(#XMLID_79_);}
	.st17{fill:#2F4D73;}
	.st18{fill:#3A5A88;}
	.st19{fill:url(#XMLID_81_);}
	.st20{fill:url(#XMLID_82_);}
	.st21{fill:url(#XMLID_84_);}
	.st22{fill:url(#XMLID_85_);}
	.st23{fill:url(#XMLID_86_);}
	.st24{fill:url(#XMLID_89_);}
	.st25{fill:url(#XMLID_90_);}
	.st26{fill:#D7D8F4;}
	.st27{fill:#F7F7F9;}
	.st28{opacity:0.67;clip-path:url(#XMLID_70_);fill:url(#XMLID_92_);}
</style>
<g id="BACKGROUND">
</g>
<g id="OBJECTS">
	<g id="XMLID_2_">
		<text id="XMLID_163_" transform="matrix(1 0 0 1 172.6877 424.0661)" class="st0 st1 st2">Sorry, page not found</text>
		<text id="XMLID_162_" transform="matrix(1 0 0 1 185.6562 399.1945)" class="st0 st3 st4">404</text>
		<g id="XMLID_69_">
			<defs>
				<path id="XMLID_66_" d="M500-5v223.6c-69.6,53.3-156.8,85-251.3,85c-93.4,0-179.5-30.9-248.8-83.1V-5H500z"/>
			</defs>
			<clipPath id="XMLID_70_">
				<use xlink:href="#XMLID_66_"  style="overflow:visible;"/>
			</clipPath>
			<g id="XMLID_3_" class="st5">
				<path id="XMLID_4_" class="st6" d="M318.3,172.7c-1.4-3.8-3.2-7.7-2.4-11.7c0.7-4,5.5-7.4,8.8-5.1c2.1,1.4,2.6,4.3,4.5,5.9
					c2.9,2.5,7.9,0.8,9.7-2.6c1.9-3.4,1.4-7.5,0.1-11.2c-1.2-3.6-3.1-7.1-3.8-10.9c-0.8-3.8-0.2-8.1,2.7-10.6
					c2.9-2.5,8.5-1.6,9.4,2.1c0.4,1.5,0.1,3.2,0.9,4.4c1.4,2,4.9,1.1,6.2-1c1.3-2.1,1.2-4.8,1.3-7.2c0.5-11.2,7.1-22,17-27.5
					c3-1.7,6.8-2.9,9.9-1.3c4.5,2.3,4.6,8.7,3.2,13.6c-2,7.1-5.8,13.7-10.9,19.1c-2.2,2.3-4.6,4.3-6.4,6.9c-1.8,2.6-2.9,5.9-2,8.9
					c0.9,3,4.3,5.4,7.2,4.3c3.3-1.2,5-5.7,8.4-5.6c3.7,0.1,4.9,5.2,3.6,8.7c-1.9,5.3-6.9,9.4-12.4,10.2c-2.8,0.4-5.7,0-8.3,1
					c-2.6,1-4.9,4-3.6,6.5c1.3,2.5,4.8,2.4,7.4,3.4c5.4,2.1,6.8,10.6,2.3,14.3c-5.7,4.7-14.9,0.3-21.6,3.4c-4.4,2.1-6.8,7-7.9,11.7
					c-1.1,4.8-1.2,9.8-2.8,14.4c-1.6,4.6-5.3,9-10.1,9.5c-11.7,1.1-9.5-12.4-8.1-19.6C322.7,195.3,322.3,183.7,318.3,172.7z"/>
				<path id="XMLID_160_" class="st7" d="M355.3,231.2c16.8-16.1,37.6-28.8,60.6-32.9c6.3-1.1,13.9-1.1,17.7,4c3,4,2.3,10-0.3,14.3
					c-2.6,4.3-6.8,7.4-10.9,10.3c-8.8,6.3-17.6,12.7-26.5,19c-12.7,9.1-25.4,18.3-38.1,27.4c-11.5,8.3-24.1,20.9-37.2,26.3
					c-7.9,3.3-18.5-1.4-14.5-10.7c3.2-7.7,12.9-13.6,18.1-19.9C334.6,256.3,343.3,242.7,355.3,231.2z"/>
				<path id="XMLID_159_" class="st7" d="M162.1,180.6c-13.2-30.2-24.1-63.2-18.6-95.6c1.1-6.7,3.1-13.5,7.1-19.1
					c4-5.5,10.4-9.7,17.3-9.5c7,0.1,13.3,4.7,17.4,10.4c4,5.7,6.1,12.6,7.9,19.3c10.3,37.4,16.4,76,16.7,114.8
					c0.2,19.5-0.7,39.4-4,58.6c-3.5,20.3-15.4-10.3-17.6-16.7C181.2,221.4,171.1,201.2,162.1,180.6z"/>
				<path id="XMLID_158_" class="st7" d="M181.5,203.1c-11.9-20-28.6-37.8-49.6-47.9c-5.7-2.8-13.1-4.8-18.1-0.9
					c-4,3.1-4.9,9-3.5,13.8c1.4,4.9,4.6,8.9,7.8,12.9c6.8,8.5,13.6,16.9,20.4,25.4c9.8,12.2,19.6,24.4,29.4,36.6
					c8.9,11,17.7,26.5,28.8,35.3c6.8,5.3,18.2,3.6,16.9-6.4c-1.1-8.3-8.8-16.5-12.2-24C194.7,232.8,190,217.4,181.5,203.1z"/>
				<path id="XMLID_157_" class="st7" d="M249.9,222.7c1.6-23.3,8.6-46.6,22.8-65c3.9-5,9.5-10.1,15.8-8.9c5,1,8.4,5.8,9.3,10.8
					c0.9,5-0.1,10.1-1.2,15c-2.3,10.6-4.6,21.2-6.8,31.9c-3.3,15.3-6.6,30.6-9.8,45.9c-3,13.9-3.9,31.7-9.9,44.5
					c-3.7,7.8-14.6,11.3-17.9,1.9c-2.8-7.9,0.5-18.7,0.1-26.9C251.4,255.2,248.7,239.3,249.9,222.7z"/>
				<path id="XMLID_156_" class="st7" d="M297.3,222.5c9.1-21.5,23.1-41.3,42.6-54.2c5.3-3.5,12.3-6.5,17.8-3.3
					c4.4,2.5,6.1,8.2,5.4,13.2c-0.7,5-3.4,9.5-6,13.8c-5.6,9.3-11.2,18.6-16.8,28c-8,13.4-16.1,26.8-24.1,40.3
					c-7.3,12.2-13.9,28.7-23.7,38.9c-6,6.2-17.5,6-17.6-4c-0.1-8.3,6.5-17.6,8.8-25.5C288.2,253.8,290.8,237.8,297.3,222.5z"/>
				<path id="XMLID_155_" class="st8" d="M162.4,231c-17.1-5-33.5-11.9-49.1-20.6c-1.3-0.7-2.6-1.5-3.4-2.7c-0.8-1.2-0.9-3,0.1-4
					c0.7-0.7,1.9-0.9,2.6-1.6c1.1-1.1,0.9-2.9,0.1-4.2c-0.9-1.2-2.3-2-3.6-2.7c-9.5-4.8-20.4-9.2-24.9-18.9c-1.1-2.5-1.7-5.2-3-7.6
					c-4.4-8.9-25.6-16.1-18.4-23c6.1-5.9,15.7,6.5,21.8,12.4c3.9,3.8,8.1,8.5,13.5,8.3c2.2-0.1,4.4-1,6.5-0.7c3.9,0.5,6.4,4.4,8,7.9
					c1.7,3.6,3.5,7.6,7.1,9c2.6,1,5.6,0.4,8.4,0.7c6.5,0.7,11.3,6.4,15.3,11.6c6.7,8.8,13.4,17.5,20.2,26.3
					c3.3,4.3,6.8,9.7,4.9,14.8c-4.6-2.9-9.2-5.9-13.8-8.8"/>
				<g id="XMLID_5_">
					<path id="XMLID_6_" class="st7" d="M379.9,214.7c20.7-25.6,40.1-54.4,43.4-87.2c0.7-6.8,0.6-13.9-1.7-20.3
						c-2.4-6.4-7.5-12.1-14.1-13.8c-6.8-1.7-14.1,0.9-19.5,5.4c-5.4,4.5-9.2,10.5-12.8,16.5c-19.9,33.3-36.1,68.9-46.8,106.2
						c-5.4,18.7-9.9,38.1-11.8,57.5c-2,20.5,17.6-5.9,21.4-11.4C350.6,248.9,365.8,232.2,379.9,214.7z"/>
					<path id="XMLID_7_" class="st6" d="M409.1,142c0,0,0-0.1,0-0.1c0-0.2-0.3-0.4-0.5-0.3c-0.4,0-0.5,0.1-0.8,0.3
						c-0.9,0.7-1.4,2.5-2.3,3.4c-2.2,2.4-4.9,4.4-7.5,6.3c-2.3,1.7-4.8,3.5-7.4,4.8c-1.5,0.7-3,1.3-4.6,1.7
						c-1.1,0.2-2.2,0.1-3.3,0.2c4.2-8.4,7.9-17.1,11.2-25.9c3.8-10.2,6.9-20.6,13-29.7c0.2-0.4-0.3-0.7-0.6-0.3
						c-5.5,7.5-8.6,16.2-11.7,24.8c-0.9,2.3-1.7,4.6-2.6,7c-2.3-2.3-3-6.3-3.5-9.4c-0.6-3.2-0.6-6.4-0.4-9.7c0.4,0,0.7-0.4,0.4-0.8
						c-0.2-0.2-0.3-0.4-0.5-0.6c-0.3-0.4-0.9,0-1,0.4c-0.4,3.9-0.2,7.9,0.6,11.8c0.5,2.6,1.2,7,3.6,8.6c0.1,0.1,0.3,0.1,0.4,0
						c0.1-0.1,0.2-0.1,0.3-0.2c-2.5,6.4-5.1,12.8-8.1,19c-4.4,9.2-9.3,17.9-15,26.2c-0.6-1.8-1.6-3.5-2.3-5.3
						c-0.7-1.8-1.2-3.6-1.6-5.5c-0.5-2.1-0.8-4.2-0.9-6.3c0-0.7-0.2-6.9,0.6-6.6c0.3,0.1,0.5-0.3,0.4-0.5c-0.1-0.1-0.1-0.3-0.2-0.4
						c-0.1-0.2-0.4-0.3-0.6-0.2c-1.5,0.4-1.3,2.1-1.4,3.4c-0.1,2.5,0,5.1,0.4,7.6c0.7,4.7,2,10.8,5.1,14.5c-4.8,7-10.1,13.8-16,20.1
						c-7.2,7.8-15.5,15.2-21.3,24.1c-0.2,0.3,0.2,0.6,0.5,0.4c6.7-7.1,13.2-14.4,19.9-21.6c3.1-3.3,6-6.7,8.9-10.1
						c-0.1,0.2,0,0.5,0.3,0.5c4.8,0.8,10.9,0.8,15.6-0.5c0.5-0.1,0.4-0.9-0.1-0.9c-2.5,0-5.1,0.4-7.7,0.5c-2.6,0.1-5.1-0.1-7.7,0
						c-0.1,0-0.1,0-0.1,0c3-3.6,5.8-7.3,8.4-11.1c4.9-7.1,9.3-14.6,13.2-22.4c1.9,0.8,4.3,0.1,6.2-0.5c2.9-1,5.6-2.7,8.1-4.4
						c2.5-1.8,5-3.7,7.3-5.7c1.1-1,2.2-1.9,3.2-3.1c0.1-0.2,1.3-1.9,1.7-2.9c0.1,0,0.2,0,0.2-0.1c0,0,0.1-0.1,0.1-0.1
						C409.1,142.3,409.1,142.1,409.1,142z"/>
				</g>
				<g id="XMLID_8_">
					<path id="XMLID_151_" class="st8" d="M321.7,304.6c17.7-1.8,35.2-5.6,52-11.3c1.4-0.5,2.8-1,3.8-2c1-1,1.5-2.8,0.6-4
						c-0.6-0.8-1.7-1.2-2.3-2.1c-0.9-1.2-0.4-3,0.7-4.1c1.1-1.1,2.6-1.5,4-2c10.2-3,21.8-5.3,27.9-14c1.6-2.2,2.7-4.7,4.3-6.9
						c6-7.9,28.1-11.1,22.3-19.2c-4.9-6.9-16.6,3.6-23.7,8.2c-4.6,3-9.5,6.9-14.8,5.7c-2.1-0.5-4.1-1.7-6.3-1.9
						c-3.9-0.2-7.1,3.1-9.3,6.3c-2.3,3.2-4.8,6.8-8.7,7.6c-2.8,0.5-5.5-0.6-8.4-0.8c-6.6-0.5-12.2,4.2-17.1,8.6
						c-8.2,7.4-16.4,14.8-24.6,22.1c-4,3.6-8.5,8.3-7.5,13.6c5.1-2,10.1-4.1,15.2-6.1"/>
					<path id="XMLID_9_" class="st6" d="M430.4,240.6c-14.3,4.6-26.2,13.9-38.3,22.4c-6.3,4.4-12.7,8.6-19.6,11.9
						c-7.1,3.4-14.4,6-21.7,9c1.5-1.7,2.4-4.3,3.7-6.1c0.9-1.3,2-2.5,3-3.6c1-1,2.8-3.4,4.3-3.5c0.3,0,0.5-0.4,0.2-0.6
						c-0.1-0.1-0.3-0.2-0.4-0.3c-0.2-0.1-0.4-0.1-0.5,0c-2.7,1.5-5,4.4-6.8,6.8c-1.6,2-4,4.9-4.3,7.6c-7.4,3.1-15,6.5-21.1,11.9
						c-0.4,0.3,0.1,1,0.5,0.7c6.3-4.5,13-8.1,20.2-11c1.6-0.7,3.3-1.4,4.9-2c4.4,1.8,10.1,4.8,14.8,2.5c0.3-0.1,0.1-0.5-0.2-0.5
						c-2.8,0.4-5.4,0.2-8.1-0.6c-1.9-0.6-3.7-1.3-5.6-1.7c4.9-2,9.9-3.8,14.7-6c13.7-6.2,25.3-15.6,37.7-24
						c7.2-4.8,14.6-9.2,22.8-12.1C431,241.1,430.8,240.4,430.4,240.6z"/>
				</g>
				<g id="XMLID_10_">
					<path id="XMLID_148_" class="st8" d="M191.4,177.5c-3.3-4.1-7.2-7.9-12-10.1c-4.8-2.2-10.7-2.5-15.3,0
						c-7.8,4.3-9.3,15-7.7,23.7c5.1,27.9,29.8,47.3,35.5,75.2c1.4,6.9,1,14.1,9.5,14.8c5.3,0.5,9.1-2.5,11-7.1
						c4.3-10.6-1.1-31-1.9-42.1C209,212.6,203.8,192.8,191.4,177.5z"/>
					<path id="XMLID_11_" class="st6" d="M197.6,243.5c-2.3-7.8-4.9-15.5-7.8-23.1c-0.4-1.1-0.9-2.3-1.3-3.4c3.6-3.2,5.8-9.4,5.8-14
						c0-0.4-0.7-0.6-0.8-0.1c-0.5,2.6-0.9,5.1-1.9,7.6c-0.9,2.1-2.2,3.8-3.4,5.6c-2.3-5.9-4.7-11.8-7.2-17.6c-0.3-0.8-0.7-1.6-1-2.4
						c0.1,0,0.1-0.1,0.2-0.1c4.7-3.7,5.4-12.5,5.2-18c0-0.8-1.2-0.8-1.3,0c-0.7,5.7-0.4,12.4-4.7,16.8c-1.1-2.5-2.2-5-3.3-7.5
						c-1.5-3.5-2.9-7.5-5.4-10.5c-0.2-0.3-0.6,0.1-0.5,0.4c0.9,2,1.8,4,2.8,6.1c-0.5-0.3-1.2-0.4-1.7-0.7c-1.2-0.5-2.3-1.3-3.3-2.2
						c-0.8-0.8-1.4-2-2.3-2.7c-0.4-0.3-0.8-0.4-1.3-0.1c-0.2,0.1-0.3,0.4-0.3,0.6c0.1,0.3,0.2,0.4,0.5,0.5c0.2,0.1,0.5-0.2,0.4-0.4
						c0.6,1.8,2.5,3.3,4,4.3c1,0.6,3,1.9,4.2,1.4c5.6,12.4,10.8,24.9,15.5,37.6c2.7,7.3,5.3,14.7,7.5,22.2c2.3,7.8,3.6,15.8,6,23.6
						c0.1,0.3,0.5,0.2,0.5-0.1C202.4,259.3,199.9,251.2,197.6,243.5z"/>
				</g>
				<path id="XMLID_12_" class="st6" d="M179.2,158.5c-4.4-2.5-8.3-5.1-11.9-8.8c-3.1-3.3-6-6.9-8.8-10.4c-0.3-0.4-0.8,0.2-0.5,0.5
					c1.3,1.6,2.4,3.6,3.8,5.2c1.7,2.1,3.4,4.1,5.3,6c3.3,3.3,7.4,6.6,11.9,7.9C179.2,159,179.4,158.6,179.2,158.5z"/>
				<g id="XMLID_13_">
					<path id="XMLID_144_" class="st8" d="M298.7,263.2c15.4-25.5,27.9-52.7,37.3-80.9c0.8-2.3,1.5-4.8,1.2-7.2
						c-0.4-2.4-2.2-4.8-4.7-4.9c-1.7-0.1-3.4,1-5.1,0.9c-2.5-0.1-4.5-2.6-4.8-5.1c-0.3-2.5,0.5-5,1.4-7.4
						c6.3-16.6,14.8-34.5,9.3-51.4c-1.4-4.3-3.7-8.3-4.9-12.7c-4.6-16,13.4-48.8-3.3-49.2c-14.1-0.4-12,25.8-12.9,39.9
						c-0.6,9.1-0.4,19.6-7.3,25.6c-2.8,2.4-6.5,3.7-8.9,6.5c-4.3,5-2.9,12.6-0.9,18.9c2,6.3,4.3,13.3,1.4,19.2
						c-2.1,4.2-6.5,6.8-9.5,10.3c-7.2,8.3-6.7,20.6-5.7,31.6c1.6,18.4,3.2,36.8,4.8,55.3c0.8,9.1,2.6,19.7,10.7,23.8
						c2.4-8.8,4.7-17.7,7.1-26.5"/>
					<g id="XMLID_14_">
						<path id="XMLID_15_" class="st6" d="M323.8,191.6c-2.3,5.9-7.2,10-11.8,14.1c-4.3,3.8-8.7,7.2-13.8,9.9
							c0.4-3.4,0.8-6.8,1.3-10.2c2-12.9,5.2-25.3,9.1-37.7c3.8-12,5.5-24,6.1-36.6c0.1-1.9,0.2-3.9,0.3-5.8c0.1,0,0.2,0,0.4-0.1
							c2.7-2.1,5.1-4.7,7.1-7.5c1.7-2.4,4-5.6,4.2-8.6c0-0.3-0.5-0.5-0.7-0.3c-1.8,2.3-2.7,5.4-4.4,7.9c-1.8,2.7-4.1,5-6.5,7.2
							c0.4-10.4,0.6-20.7,1.5-31.1c0.6-7.1,1.5-14.2,3.1-21.2c1.5-6.5,4.4-13.1,4.2-19.9c0-0.2-0.4-0.3-0.4-0.1
							c-1,6.2-3.2,12.1-4.6,18.2c-1.4,5.8-2.4,11.8-3.1,17.8c-1.5,12.7-1.6,25.5-2.2,38.3c-0.6,12.9-1.6,25.7-5.4,38.2
							c-3.7,12.3-7.4,24.4-9.5,37.1c-0.9,5-1.5,10.1-2.1,15.1c-0.1,0-0.2,0.1-0.3,0.1c-0.4,0.2-0.2,0.7,0.2,0.8
							c-0.2,1.7-0.3,3.4-0.5,5.2c-0.6,7.4-1.2,14.9-0.7,22.3c0,0.6,0.9,0.6,0.9,0c0.5-6.4,0.5-12.9,0.9-19.4
							c0.2-2.9,0.5-5.7,0.8-8.6c5.7-2.3,10.5-6.5,15-10.6c4.6-4.2,9.4-8.3,11.8-14.3C325.1,191.2,324.1,191,323.8,191.6z"/>
						<path id="XMLID_16_" class="st6" d="M312.2,140.9c-6.5-4.1-9.3-10.8-12.2-17.6c-0.3-0.6-1.3-0.4-1,0.3
							c2.6,6.8,6,14.5,12.7,18.1C312.3,141.9,312.7,141.2,312.2,140.9z"/>
						<path id="XMLID_17_" class="st6" d="M299.4,196.3c-2.9-3.1-4.8-6.6-5.9-10.7c-1-3.6-1.2-7.4-1.8-11c-0.1-0.5-1-0.4-0.9,0.1
							c0.3,7.9,2.2,16.6,8.2,22.1C299.2,197.2,299.8,196.7,299.4,196.3z"/>
					</g>
				</g>
				<path id="XMLID_18_" class="st6" d="M385.7,257.5c-1.9,3-2.6,6.8-1.8,10.3c0.1,0.3,0.6,0.2,0.5-0.1c-0.4-3.6,0.1-6.7,1.9-9.8
					C386.5,257.5,385.9,257.1,385.7,257.5z"/>
				<g id="XMLID_19_">
					<path id="XMLID_20_" class="st6" d="M177.4,208.3c-1-5.7-7.8-10.5-12.6-7.3c-2.9,2-3.7,6.1-6.4,8.4c-4.2,3.6-11.3,1.1-13.9-3.7
						c-2.7-4.8-1.9-10.8-0.2-16c1.7-5.2,4.4-10.1,5.5-15.5c1.1-5.4,0.3-11.7-3.9-15.2c-4.2-3.6-12.1-2.3-13.5,3
						c-0.5,2.1-0.1,4.5-1.3,6.3c-2,2.9-7,1.6-8.9-1.4c-1.9-3-1.7-6.8-1.8-10.4c-0.7-16.1-10.2-31.5-24.3-39.3
						c-4.4-2.4-9.8-4.1-14.2-1.8c-6.4,3.3-6.5,12.5-4.6,19.5c2.9,10.2,8.3,19.6,15.6,27.3c3.1,3.2,6.6,6.2,9.1,9.9
						c2.6,3.7,4.1,8.4,2.9,12.7c-1.3,4.3-6.1,7.7-10.4,6.2c-4.7-1.6-7.1-8.1-12.1-8c-5.2,0.1-7,7.4-5.2,12.4
						c2.7,7.6,9.8,13.5,17.8,14.6c4,0.6,8.1,0,11.9,1.4c3.8,1.4,7,5.7,5.1,9.3c-1.9,3.5-6.8,3.5-10.5,4.9c-7.8,3-9.8,15.1-3.3,20.4
						c8.2,6.7,21.3,0.4,30.9,4.9c6.3,2.9,9.8,10,11.3,16.8c1.6,6.8,1.7,14,4.1,20.6c2.3,6.6,7.5,12.9,14.5,13.6
						c16.7,1.6,13.6-17.7,11.6-28c-3.2-16.4-2.6-33.1,3.2-48.9C175.9,219.5,178.4,213.9,177.4,208.3z"/>
					<path id="XMLID_21_" class="st7" d="M149.4,251.5c0.7-0.5,1.3-1.2,1.7-1.6c3.3-3,6.1-6.6,8.3-10.5c4.9-8.6,7-18.2,8.3-27.9
						c0-0.4-0.6-0.5-0.7-0.1c-1.3,7.7-3.2,15.5-6.5,22.6c-1.4,3.1-3.1,6-5.1,8.7c-1.1,1.5-2.2,2.9-3.5,4.2c-0.6,0.6-1.1,1.2-1.7,1.7
						c-0.4,0.4-0.8,0.7-1.2,1.1c-0.1,0.1-0.3,0.2-0.4,0.3c-4.6-10.6-9.8-20.9-14.6-31.4c-3-6.7-5.8-13.5-8.4-20.3
						c4.4-4.1,8.1-9.4,11.1-14.6c2.9-5,5-10.4,4.9-16.3c0-0.4-0.6-0.4-0.6,0c-0.5,11.8-8.7,21-15.9,29.6
						c-5.3-13.8-10.3-27.7-16.7-41c-5.4-11.2-11.9-21.9-20.3-31.1c-0.6-0.6-1.5,0.3-0.9,0.9c15,16.9,23.6,37.8,31.5,58.6
						c3,8,6,15.9,9.2,23.8c-7.6-2-15.3-3.5-22.8-5.7c-3.8-1.1-7.5-2.4-11.1-4c-1.8-0.8-3.6-1.7-5.3-2.7c-1.5-0.9-2.9-2.1-4.5-2.5
						c-0.3-0.1-0.6,0.3-0.4,0.6c1.8,2.6,5.9,4.3,8.7,5.6c3.5,1.7,7.2,3,11,4.2c8.2,2.5,16.6,4.6,25,6.3c0,0,0.1,0,0.1,0
						c0.6,1.5,1.2,3,1.9,4.5c3.5,7.9,7.3,15.7,11,23.5c-2.5,1.1-4.8,2.4-7.7,2.9c-3.3,0.6-6.7,0.6-10.1,0.4
						c-3.6-0.2-7.3-0.7-10.8-1.6c-3.6-0.9-7-2.3-10.6-3.2c-0.4-0.1-0.7,0.5-0.3,0.7c3.1,2,7,3,10.6,3.9c3.8,0.9,7.7,1.5,11.7,1.7
						c5.3,0.3,13.5,0.3,17.9-3.7c1.2,2.6,2.4,5.1,3.6,7.7c0.5,1.2,1,2.3,1.5,3.5c0,0-0.1,0-0.1,0c-0.2,0.1-0.4,0.2-0.4,0.4
						c-0.2,0.6,0,1.2,0.7,1.3c0.2,0.1,0.4,0,0.6,0c4.6,11,8.3,22.2,10.9,34c0.1,0.6,1.1,0.4,1-0.1c-1.4-11.7-5.7-23-10.3-33.7
						C149.7,252,149.5,251.7,149.4,251.5z"/>
				</g>
				<g id="XMLID_22_">
					<path id="XMLID_23_" class="st6" d="M249.7,147.7c-2.7-3.7-8.1-5.1-12.3-3.4c-2.6,1.1-4.9,3.3-7.8,3.5c-5,0.4-8.4-5.8-7.1-10.7
						c1.3-4.8,5.5-8.2,9.7-11.1c4.1-2.9,8.6-5.8,10.7-10.3c2.2-4.5,0.7-11.2-4.1-12.5c-4.4-1.3-8.5,2.3-12,5.2
						c-3.5,3-8.6,5.7-12.3,3c-4-2.9-2.6-9.1-0.9-13.8c4-11.8,6.1-24.2,6.1-36.7c0-5.2-0.4-10.5-3.1-14.9c-2.7-4.4-8.3-7.4-13.1-5.6
						c-3.6,1.4-5.9,5.1-6.7,8.9c-0.8,3.8-0.2,7.7,0.3,11.5c1.1,7.9,2.2,15.8,3.3,23.7c0.6,4,0.2,9.4-3.7,10.3
						c-5,1.2-7.4-6.5-12.2-8.5c-5.3-2.3-11,4.1-10.4,9.7c0.3,3,1.7,5.6,3.5,7.9c-0.2,0.7-0.3,1.4-0.5,2c-0.5,1.6-1.1,3.2-1.9,4.7
						c-1.4,2.6-3.2,4.7-5.2,6.8c-1.7-7.3-3-14.7-3.6-22.2c-0.7-8.4-0.4-16.8-0.1-25.2c0-0.4-0.6-0.5-0.7-0.1
						c-1.2,7.9-1.3,16.1-0.7,24.1c-0.3-1.2-1.2-1.8-2.1-2.7c-1.3-1.3-2.5-2.7-3.7-4.2c-2.4-3-4.3-6.2-6.2-9.6
						c-0.4-0.7-1.4-0.1-1,0.6c1.7,3.4,3.8,6.5,6.1,9.5c1.2,1.6,2.6,3.1,4,4.5c0.9,0.9,1.5,1.9,2.9,2c0,0,0,0,0,0
						c0.7,8.7,2.2,17.3,4.2,25.6c0.2,0.7,0.3,1.3,0.5,2c-1.2-0.4-2.5-0.5-3.8-0.1c-2.9,0.9-4.8,3.9-4.9,7c-0.1,3,1.2,6,3,8.4
						c3.3,4.7,8,8,12.8,11.2l2.4,8.8c1.1,4,1.7,8.6,3.6,12.4c0.2,0.4,0.9,0.2,0.9-0.2c-0.3-3.9-1.8-7.8-2.8-11.6
						c-0.7-2.7-1.5-5.4-2.2-8.2c2.9,1.9,5.8,3.8,8.5,5.9c16.4,13.2,22.4,37.8,14,57.1l6.2-10c-3,6.5-6.1,13.6-4.6,20.6
						c1.5,7,9.9,12.8,15.9,8.9c4.1-2.6,5.1-8.1,5.6-13c1.2-10,2.4-19.9,3.6-29.9c0.9-7.3,2.1-15.3,7.8-20c4.3-3.5,10.5-4.4,14-8.7
						C252.4,156.8,252.5,151.3,249.7,147.7z M187.3,135.7c-4.5,0-7.7-4.2-10.4-7.9c-1.5-2-3.5-4.1-5.7-5.4c-0.1-0.6-0.3-1.1-0.4-1.7
						c-0.2-0.7-0.3-1.4-0.5-2.1c2.4-1.9,4.3-4.4,5.8-7c1-1.8,2.2-4.1,2.7-6.4c1.5,1.7,3.2,3.2,4.9,4.6c4.4,3.7,9.2,7.5,10.9,13
						C196.3,128.4,193.1,135.7,187.3,135.7z"/>
					<path id="XMLID_26_" class="st7" d="M242.9,152c-0.9,2.9-3.7,4.6-6.1,6.2c-2.4,1.7-4.8,3.4-7.4,4.9c-4.6,2.8-9.6,4.8-14.7,6.5
						c-0.6-3.4-1.4-6.7-2.3-10.1c0-0.1,0-0.3-0.1-0.4c-0.7-2.7-1.5-5.4-2.3-8.1c-1.9-6.5-3.7-12.9-4.8-19.5
						c5.6-0.3,11.8-3.6,16.4-6.5c5.2-3.2,9.8-7.4,13.4-12.4c0.2-0.3-0.3-0.7-0.5-0.4c-3.9,4.6-8.3,8.6-13.4,11.8
						c-2.6,1.6-5.4,3-8.3,4.1c-2.5,1-5.2,1.5-7.7,2.4c-0.7-4.2-1-8.4-1-12.7c0-1.4,0.1-2.9,0.2-4.3c0.1-0.2,0.1-0.4,0-0.7
						c0.6-9.4,2.4-18.7,3.7-28c1.7-11.8,2.5-23.6-0.4-35.2c-0.1-0.5-0.8-0.3-0.7,0.2c4.7,20.7-2.4,41.4-3.9,62.1
						c-3.8-2.2-7.4-4.7-10.8-7.6c-3.5-3-6.4-6.5-9.5-9.9c-0.3-0.4-1,0.1-0.7,0.5c4.9,7.8,12.9,14.1,20.9,18.6c0,0.1,0,0.2,0,0.3
						c-0.6,10.8,1.1,21.1,4,31.4c1.2,4.4,2.6,8.8,3.8,13.2c-16.6-5.4-27.4-19.5-42.1-28.2c-0.7-0.4-1.3,0.6-0.6,1.1
						c7.5,5.3,14.4,11.3,21.6,17c6.5,5.1,13.6,9.7,21.6,11.9c0.9,3.3,1.7,6.6,2.3,9.9c-0.7,0.3-0.4,1.3,0.2,1.3
						c0.4,2.3,0.7,4.5,1,6.8c1.3,13-0.2,25.6-3.2,38.3c-0.2,0.8,1,1.1,1.2,0.3c3.3-10.6,4.3-22.1,3.8-33.1
						c-0.2-4.3-0.7-8.5-1.4-12.7c5.9-1.7,11.5-4.4,16.6-7.8c2.7-1.8,5.3-3.7,7.8-5.7c1.9-1.5,3.4-3,4-5.4
						C243.6,151.8,243,151.6,242.9,152z"/>
				</g>
				<g id="XMLID_27_">
					<path id="XMLID_28_" class="st6" d="M429.2,207.1c-7.6,1.5-14.5,4.9-21.2,8.6c-1.2,0.7-2.3,1.4-3.5,2c0.6-1.8,1.3-3.6,2.4-5.2
						c1.3-2,3.2-3.2,4.6-5c0.3-0.3-0.1-0.8-0.5-0.6c-4.1,1.7-6.9,7.4-7.8,11.5c-4.7,2.8-9.4,5.6-14.1,8.5c-0.1,0-0.1-0.1-0.2-0.1
						c-0.3-0.2-0.7,0.2-0.5,0.5c-0.3,0.2-0.5,0.3-0.8,0.5c-3.1,1.9-6.2,3.8-9.2,5.8c1.5-2.3,2.9-4.7,4.2-7.3
						c3.9-8,5.2-18.7-1.1-24.9c-3.8-3.7-9.5-4.9-14.7-4.1c-5.2,0.8-10,3.4-14.3,6.5c-16.1,11.5-26.3,29.2-32.8,47.4
						c-3.7,10.5-14.4,28.7-13.1,40c0.6,5,3.4,8.8,8.7,9.8c8.4,1.5,9.9-5.5,13.1-11.8c11.2-21.9,34.3-33.9,48.4-53.2
						c4.1-2.7,8.3-5.3,12.5-7.9c3.6,3.9,10.3,6.2,15.4,6.2c0.6,0,0.8-1,0.1-1.1c-2.9-0.5-5.6-0.9-8.4-2.1c-2.3-1-4.2-2.4-6.2-3.7
						c4.8-3,9.6-5.9,14.5-8.8c7.8-4.7,15.8-9.1,24.6-11.2C429.7,207.6,429.5,207.1,429.2,207.1z"/>
					<path id="XMLID_29_" class="st7" d="M354.3,230.5c0-0.1,0-0.2,0-0.2c1.1-1.4,2.2-2.8,3.3-4.1c5.2-6.3,10.9-13.2,17.8-17.7
						c0.3-0.2,0-0.6-0.3-0.5c-3.8,1.6-6.7,4.8-9.5,7.7c-2.8,2.9-5.6,5.9-8.2,9c-1,1.2-1.9,2.3-2.9,3.5c0.2-2.6,0-5.4,0.2-8
						c0.4-4,1.2-7.8,2-11.7c0.1-0.5-0.6-0.7-0.8-0.2c-1.2,3.6-1.9,7.3-2.3,11c-0.4,3.3-0.9,7.2-0.3,10.5c-3.3,4.1-6.3,8.3-9.3,12.7
						c-0.1,0-0.2,0-0.3,0c-0.6,0-0.7,0.6-0.4,1c-0.2,0.3-0.4,0.6-0.6,0.9c-3.4,5-6.7,10.1-9.8,15.3c-0.1-0.7-0.1-1.4-0.2-2
						c-0.2-1.7-0.3-3.5-0.4-5.2c-0.2-3.3,0-6.6,0.1-10c0-0.5-0.8-0.6-0.8-0.1c-0.5,3.6-0.6,7.4-0.4,11c0.1,1.9,0.3,3.8,0.5,5.7
						c0.1,0.7,0.1,1.5,0.3,2.2c-5.3,8.8-10.4,17.8-15.1,26.9c-0.3,0.6,0.6,1.2,1,0.6c5.1-8.6,9.8-17.3,14.8-25.9
						c0.1,0.1,0.3,0.1,0.5,0.1c0.1,0,0.2,0,0.3-0.1c0.2,0,0.4-0.4,0.2-0.6c-0.1-0.2-0.3-0.4-0.4-0.6c3-5.1,6.1-10.2,9.4-15.2
						c0.6-0.9,1.2-1.8,1.9-2.7c4.4,0.1,8.8-0.5,12.9-2.2c4.2-1.7,8-4.3,12.1-6.3c0.4-0.2,0-0.7-0.3-0.5c-4.1,1.8-7.9,4.3-12.1,5.8
						c-3.8,1.4-7.8,2.1-11.9,2c2.7-4,5.6-7.9,8.5-11.6C354.1,230.8,354.3,230.7,354.3,230.5z"/>
				</g>
			</g>
			<g id="XMLID_121_" class="st5">
				<linearGradient id="XMLID_72_" gradientUnits="userSpaceOnUse" x1="157.5652" y1="231.5553" x2="157.5652" y2="100.9873">
					<stop  offset="0" style="stop-color:#C8421B"/>
					<stop  offset="1" style="stop-color:#FFFFFF;stop-opacity:0"/>
				</linearGradient>
				<path id="XMLID_31_" class="st9" d="M250.7,147.7c-2.7-3.7-8.1-5.1-12.3-3.4c-2.6,1.1-4.9,3.3-7.8,3.5c-5,0.4-8.4-5.8-7.1-10.7
					c1.3-4.8,5.5-8.2,9.7-11.1c4.1-2.9,8.6-5.8,10.7-10.3c2.2-4.5,0.7-11.2-4.1-12.5c-4.4-1.3-8.5,2.3-12,5.2c-3.5,3-8.6,5.7-12.3,3
					c-4-2.9-2.6-9.1-0.9-13.8c4-11.8,6.1-24.2,6.1-36.7c0-5.2-0.4-10.5-3.1-14.9c-2.7-4.4-8.3-7.4-13.1-5.6
					c-3.6,1.4-5.9,5.1-6.7,8.9c-0.8,3.8-0.2,7.7,0.3,11.5c1.1,7.9,2.2,15.8,3.3,23.7c0.6,4,0.2,9.4-3.7,10.3
					c-0.4,0.1-0.8,0.1-1.2,0.1c-0.8-3-1.5-6-2.4-8.9c-1.9-6.8-3.9-13.6-7.9-19.3c-4-5.7-10.3-10.3-17.4-10.4
					c-6.8-0.1-13.3,4-17.3,9.5c-4,5.5-5.9,12.3-7.1,19.1c-5,29.7,3.6,59.7,15.2,87.7c-0.2,0.3-0.4,0.6-0.5,1
					c-2.7-2.5-5.4-4.9-8.3-7.2c-0.5-2.9-1.8-5.6-4.1-7.5c-2.5-2.1-6.4-2.5-9.4-1.3c-1.5-0.8-3.1-1.6-4.6-2.4
					c-3.7-1.8-7.9-3.2-11.9-3c-2-14.5-11.1-27.9-23.9-35c-4.4-2.4-9.8-4.1-14.2-1.8c-6.4,3.3-6.5,12.5-4.6,19.5
					c2.9,10.2,8.3,19.6,15.6,27.3c1.4,1.4,2.8,2.8,4.2,4.2c-5-0.4-8.9-4.8-12.6-8.3c-6.1-5.8-15.7-18.2-21.8-12.4
					c-7.2,6.9,14,14.1,18.4,23c1.2,2.4,1.8,5.1,3,7.6c3,6.6,9.1,10.8,15.7,14.3c-1.7,0.8-3.5,1-5.3,0.4c-4.7-1.6-7.1-8.1-12.1-8
					c-5.2,0.1-7,7.4-5.2,12.4c2.7,7.6,9.8,13.5,17.8,14.6c4,0.6,8.1,0,11.9,1.4c3.8,1.4,7,5.7,5.1,9.3c-1.9,3.5-6.8,3.5-10.5,4.9
					c-7.8,3-9.8,15.1-3.3,20.4c8.2,6.7,21.3,0.4,30.9,4.9c6.3,2.9,9.8,10,11.3,16.8c1.6,6.8,1.7,14,4.1,20.6
					c2.3,6.6,7.5,12.9,14.5,13.6c16.7,1.6,13.6-17.7,11.6-28c-1.9-9.6-2.4-19.4-1.4-28.9c7.6,9.9,15.3,22.6,24.6,31
					c1.1,2.8,3.1,4.8,7.4,5.2c0.7,0.1,1.4,0.1,2,0c5.7,0.8,11.1-2.1,10.2-9.2c-0.1-0.5-0.2-1-0.3-1.5c2.1-10.9-2.1-28-2.9-38.1
					c2.7,1.1,5.6,1.2,8.1-0.4c4.1-2.6,5.1-8.1,5.6-13c1.2-10,2.4-19.9,3.6-29.9c0.9-7.3,2.1-15.3,7.8-20c4.3-3.5,10.5-4.4,14-8.7
					C253.4,156.8,253.5,151.3,250.7,147.7z"/>
				<linearGradient id="XMLID_73_" gradientUnits="userSpaceOnUse" x1="343.8172" y1="231.555" x2="343.8172" y2="100.9872">
					<stop  offset="0" style="stop-color:#C8421B"/>
					<stop  offset="1" style="stop-color:#FFFFFF;stop-opacity:0"/>
				</linearGradient>
				<path id="XMLID_122_" class="st10" d="M436.1,239c-4.9-6.9-16.6,3.6-23.7,8.2c-4.6,3-9.5,6.9-14.8,5.7c-2.1-0.5-4.1-1.7-6.3-1.9
					c-0.6,0-1.1,0-1.6,0.1c2.4-1.7,4.8-3.4,7.2-5.2c8.8-6.3,17.6-12.7,26.5-19c4.1-2.9,8.3-6,10.9-10.3c2.6-4.3,3.3-10.2,0.3-14.3
					c-3.8-5.1-11.4-5.1-17.7-4c-10.6,1.9-20.8,5.6-30.3,10.7c-0.1-0.4-0.2-0.7-0.3-1.1c18.6-23.9,35-50.6,38.1-80.5
					c0.7-6.8,0.6-13.9-1.7-20.3c-2.4-6.4-7.5-12.1-14.1-13.8c-6.8-1.7-14.1,0.9-19.5,5.4c-0.7,0.6-1.3,1.1-2,1.8
					c-0.6-1.9-1.7-3.5-3.4-4.4c-3.1-1.6-6.9-0.4-9.9,1.3c-9.9,5.4-16.5,16.2-17,27.5c-0.1,2.5,0,5.1-1.3,7.2c-1.3,2.1-4.8,3-6.2,1
					c-0.9-1.3-0.5-3-0.9-4.4c-1-3.7-6.5-4.6-9.4-2.1c-2.9,2.5-3.5,6.9-2.7,10.6c0.8,3.8,2.6,7.2,3.8,10.9c1.2,3.6,1.7,7.8-0.1,11.2
					c-1.9,3.4-6.8,5.1-9.7,2.6c-1.8-1.5-2.4-4.1-4.1-5.6c6.2-15.9,13.6-32.8,8.4-48.9c-1.4-4.3-3.7-8.3-4.9-12.7
					c-4.6-16,13.4-48.8-3.3-49.2c-14.1-0.4-12,25.8-12.9,39.9c-0.6,9.1-0.4,19.6-7.3,25.6c-2.8,2.4-6.5,3.7-8.9,6.5
					c-4.3,5-2.9,12.6-0.9,18.9c2,6.3,4.3,13.3,1.4,19.2c0,0.1-0.1,0.1-0.1,0.2c-1.6-3.4-4.4-6.2-8.1-6.9c-6.3-1.2-11.9,3.9-15.8,8.9
					c-14.2,18.4-21.2,41.8-22.8,65c-1.2,16.6,1.5,32.5,2.3,49c0.4,8.2-2.8,19.1-0.1,26.9c3.3,9.5,14.3,5.9,17.9-1.9
					c6-12.8,6.9-30.6,9.9-44.5c1.5-6.9,3-13.8,4.4-20.6c0.6,7,1.2,14,1.8,21c0.1,1.7,0.3,3.4,0.6,5.1c-1,4-2,7.9-3.1,11.9
					c-2.3,7.9-8.8,17.1-8.8,25.5c0.1,10.1,11.6,10.2,17.6,4c9.5-9.8,16-25.6,23-37.6c-3.8,8.5-8.2,18.3-8.8,26.1
					c-0.2,0.4-0.5,0.9-0.6,1.4c-2.8,6.6,1.7,10.8,7.4,11.6c0.6,0.2,1.3,0.4,2,0.5c0.4,0.1,0.7,0.1,1.1,0.2c-1.4,2.2-2.2,4.6-1.7,7.2
					c3.5-1.4,7.1-2.9,10.6-4.3c16.4-1.9,32.7-5.6,48.4-10.9c1.4-0.5,2.8-1,3.8-2c1-1,1.5-2.8,0.6-4c-0.6-0.8-1.7-1.2-2.3-2.1
					c-0.9-1.2-0.4-3,0.7-4.1c1.1-1.1,2.6-1.5,4-2c10.2-3,21.8-5.3,27.9-14c1.6-2.2,2.7-4.7,4.3-6.9
					C419.7,250.2,441.8,247.1,436.1,239z M373.3,264.9c-1,0.2-1.9,0.1-2.9,0c4.2-3,8.5-6.1,12.7-9.1c-0.4,0.5-0.8,1-1.2,1.5
					C379.7,260.5,377.2,264.2,373.3,264.9z"/>
			</g>
			<g id="XMLID_30_" class="st5">
				<linearGradient id="XMLID_74_" gradientUnits="userSpaceOnUse" x1="246.5003" y1="183.5099" x2="246.5003" y2="233.7375">
					<stop  offset="0" style="stop-color:#CFA58B"/>
					<stop  offset="1" style="stop-color:#F2CFB2"/>
				</linearGradient>
				<path id="XMLID_32_" class="st11" d="M285.9,232.4c-15.7-6.3-17.5-9.1-18.7-21.2c-1.2-12,4.1-24.6,4.1-24.6s-23.8-2.1-24.8-2.1
					c-1,0-24.8,2.1-24.8,2.1s5.3,12.6,4.1,24.6c-1.2,12-2.9,14.9-18.7,21.2c-15.7,6.3-24.2,8.9-24.2,8.9s36.1,29.4,63.6,29.6
					c27.4-0.2,63.6-29.6,63.6-29.6S301.6,238.6,285.9,232.4z"/>
				<linearGradient id="XMLID_75_" gradientUnits="userSpaceOnUse" x1="246.5004" y1="117.2988" x2="246.5004" y2="189.189">
					<stop  offset="0" style="stop-color:#CFA58B"/>
					<stop  offset="1" style="stop-color:#F2CFB2"/>
				</linearGradient>
				<path id="XMLID_35_" class="st12" d="M285.8,146.4C285.8,146.4,285.8,146.4,285.8,146.4c0-0.8,0.1-1.6,0.1-2.4
					c0-21.7-1.6-45.5-38.2-46.2c-26.8-0.5-40.5,24.5-40.5,46.2c0,0.8,0,1.6,0.1,2.4c0,0,0,0,0,0c-1.7,22.9,18.1,60.9,38.8,60.9h0.5
					C267.2,207.3,287.5,169.3,285.8,146.4z"/>
				<linearGradient id="XMLID_76_" gradientUnits="userSpaceOnUse" x1="245.2009" y1="84.7952" x2="245.2009" y2="108.494">
					<stop  offset="0" style="stop-color:#9ED1E1"/>
					<stop  offset="1" style="stop-color:#65A3B2"/>
				</linearGradient>
				<path id="XMLID_36_" class="st13" d="M248.8,110.6c-12.7-0.8-26.2-10.2-34.5,20.8c-6.9,25.9,0.5,47.9,0.5,47.9s-5.5-0.1-7.8-7.6
					c-2.3-7.5-15.6-44.7-4.7-56.8c11.8-13,8.6-22.6,21.6-28.6c9.6-4.4,22.9,2.3,31.3-2.7c11.3-6.8,24.4,1.7,27.8,10.1
					c2.5,6-2.5,17.6,2.7,23.9c5.4,6.5,8.8,27.1,4.2,38.5c-4.6,11.4-10.3,19.8-10.3,19.8s2.6-23.3,1.9-38.7
					C280.3,102,265,111.6,248.8,110.6z"/>
				<linearGradient id="XMLID_77_" gradientUnits="userSpaceOnUse" x1="246.5003" y1="237.2011" x2="246.5003" y2="309.332">
					<stop  offset="0" style="stop-color:#9ED1E1"/>
					<stop  offset="1" style="stop-color:#65A3B2"/>
				</linearGradient>
				<path id="XMLID_37_" class="st14" d="M317.3,242.3c-9.1-4.1-42.6-15.2-42.6-15.2s-4.8,9.9-28.2,9.9c-23.4,0-28.2-9.9-28.2-9.9
					s-33.4,11.1-42.6,15.2c-9.1,4.1-17.6,27.4-17.8,40c-0.2,12.5,52.2,30.1,88.6,30.1c36.4,0,88.8-17.6,88.6-30.1
					C334.9,269.7,326.4,246.4,317.3,242.3z"/>
				<linearGradient id="XMLID_78_" gradientUnits="userSpaceOnUse" x1="264.9787" y1="84.7954" x2="264.9787" y2="108.494">
					<stop  offset="0" style="stop-color:#9ED1E1"/>
					<stop  offset="1" style="stop-color:#65A3B2"/>
				</linearGradient>
				<path id="XMLID_116_" class="st15" d="M268.4,131.3c-4.2,1.1-8.4,2.2-12.7,3.4c-0.6,0.1-1.1,0.3-1.7,0.2c-1.5-0.3-2-2.4-1.2-3.7
					c0.7-1.3,2.2-2,3.6-2.6c3.6-1.5,7.5-2.5,11.4-2.1c3.9,0.4,7.7,2.5,9.5,6c0.3,0.7,0.5,1.6,0,2.1c-0.4,0.4-1.1,0.5-1.6,0.2
					c-0.5-0.2-1-0.6-1.4-1c-2.4-1.9-5.6-2.6-8.5-1.9"/>
				<linearGradient id="XMLID_79_" gradientUnits="userSpaceOnUse" x1="230.8853" y1="84.7954" x2="230.8853" y2="108.494">
					<stop  offset="0" style="stop-color:#9ED1E1"/>
					<stop  offset="1" style="stop-color:#65A3B2"/>
				</linearGradient>
				<path id="XMLID_115_" class="st16" d="M227.5,131.3c4.2,1.1,8.4,2.2,12.7,3.4c0.6,0.1,1.1,0.3,1.7,0.2c1.5-0.3,2-2.4,1.2-3.7
					c-0.7-1.3-2.2-2-3.6-2.6c-3.6-1.5-7.5-2.5-11.4-2.1c-3.9,0.4-7.7,2.5-9.5,6c-0.3,0.7-0.5,1.6,0,2.1c0.4,0.4,1.1,0.5,1.6,0.2
					c0.5-0.2,1-0.6,1.4-1c2.4-1.9,5.6-2.6,8.5-1.9"/>
				<path id="XMLID_38_" class="st17" d="M264,131.4c-3,1.5-8.2,7.5-16.3,7.5c-8,0-13.4-5.8-16.3-7.9c-2.7-1.9-6.5,25.1-1.8,24
					c4.7-1.1,12.5-4.5,18.1-4.5c5.6,0,12.8,3.3,17.6,4.5C270,156.2,266.9,129.9,264,131.4z"/>
				<circle id="XMLID_39_" class="st18" cx="224.8" cy="143" r="13"/>
				<linearGradient id="XMLID_81_" gradientUnits="userSpaceOnUse" x1="242.1287" y1="171.0177" x2="253.2795" y2="171.0177">
					<stop  offset="0" style="stop-color:#D59A74"/>
					<stop  offset="1" style="stop-color:#E6AE8A"/>
				</linearGradient>
				<path id="XMLID_40_" class="st19" d="M242.5,169.3c1-0.4,4,1,5,1.1c1,0.1,3.3-1,4.3-1.1c1.1-0.1,2.8,0.5,0,1.9
					c-1.1,0.6-3.5,2-4.8,1.5C245.7,172.3,240.8,169.9,242.5,169.3z"/>
				
					<linearGradient id="XMLID_82_" gradientUnits="userSpaceOnUse" x1="415.588" y1="55.5327" x2="435.1721" y2="55.5327" gradientTransform="matrix(0.9815 0.1916 -0.1916 0.9815 -158.5452 45.5929)">
					<stop  offset="0" style="stop-color:#D59A74"/>
					<stop  offset="1" style="stop-color:#E6AE8A"/>
				</linearGradient>
				<path id="XMLID_111_" class="st20" d="M258.5,180.8c-3.9,0.4-7.7,0.6-11.6,0.8c-2.7,0.1-6-0.2-8.6,0.5c3.4,1.1,7.5,1.8,11.1,1.8
					c1.7,0,3.3-0.2,4.9-0.7C255.5,182.8,257.5,180.9,258.5,180.8z"/>
				<path id="XMLID_41_" class="st18" d="M232.9,132.7c-0.6-0.3-30.2-34.9-30.2-34.9l-16.4,70.8l43.4-13.5L232.9,132.7z"/>
				<linearGradient id="XMLID_84_" gradientUnits="userSpaceOnUse" x1="182.2275" y1="136.4399" x2="182.2275" y2="214.2082">
					<stop  offset="0" style="stop-color:#CFA58B"/>
					<stop  offset="1" style="stop-color:#F2CFB2"/>
				</linearGradient>
				<path id="XMLID_42_" class="st21" d="M136.9,118.7c-8.4,8.9,9.4,32.2,15.2,42.2c10.8,18.3,12.4,19,16.4,34.9
					c4,15.9-13.4,95-11.6,97.8c1.8,2.9,26.8,12.7,37.6,11.9c10.8-0.8,3.8-27.8,2-64.7c-2.6-52.2,4.3-57.9,10.7-66.2
					c6.4-8.3,17-15.4,21.4-28.4c4.2-12.5-3.4-19.7-6.6-8.5c-3.3,11.2-17.8,26.1-28.7,29c-11.9,3.2-34.8,4.4-46.8-11.6
					C133.2,137.3,136.9,118.7,136.9,118.7z"/>
				<linearGradient id="XMLID_85_" gradientUnits="userSpaceOnUse" x1="173.7891" y1="84.0729" x2="173.7891" y2="158.3341">
					<stop  offset="0" style="stop-color:#9ED1E1"/>
					<stop  offset="1" style="stop-color:#65A3B2"/>
				</linearGradient>
				<path id="XMLID_108_" class="st22" d="M173.8,170.4c-23.2,0-42.1-18.9-42.1-42.1s18.9-42.1,42.1-42.1
					c23.2,0,42.1,18.9,42.1,42.1S197,170.4,173.8,170.4z"/>
				<circle id="XMLID_107_" class="st18" cx="173.8" cy="128.4" r="27.6"/>
				<circle id="XMLID_43_" class="st18" cx="270" cy="143" r="13"/>
				<path id="XMLID_44_" class="st18" d="M261.1,133.5c0.6-0.3,31.1-35.7,31.1-35.7l16.4,70.8l-43.4-13.5L261.1,133.5z"/>
				<linearGradient id="XMLID_86_" gradientUnits="userSpaceOnUse" x1="312.6092" y1="136.4399" x2="312.6092" y2="214.2082">
					<stop  offset="0" style="stop-color:#CFA58B"/>
					<stop  offset="1" style="stop-color:#F2CFB2"/>
				</linearGradient>
				<path id="XMLID_45_" class="st23" d="M357.9,118.7c8.4,8.9-9.4,32.2-15.2,42.2c-10.8,18.3-12.4,19-16.4,34.9
					c-4,15.9,13.4,95,11.6,97.8c-1.8,2.9-26.8,12.7-37.6,11.9c-10.8-0.8-3.8-27.8-2-64.7c2.6-52.2-4.3-57.9-10.7-66.2
					c-6.4-8.3-17-15.4-21.4-28.4c-4.2-12.5,3.4-19.7,6.6-8.5c3.3,11.2,17.8,26.1,28.7,29c11.9,3.2,34.8,4.4,46.8-11.6
					C361.6,137.3,357.9,118.7,357.9,118.7z"/>
				<linearGradient id="XMLID_89_" gradientUnits="userSpaceOnUse" x1="321.0475" y1="84.0729" x2="321.0475" y2="158.3341">
					<stop  offset="0" style="stop-color:#9ED1E1"/>
					<stop  offset="1" style="stop-color:#65A3B2"/>
				</linearGradient>
				<path id="XMLID_103_" class="st24" d="M321,170.4c23.2,0,42.1-18.9,42.1-42.1S344.2,86.3,321,86.3c-23.2,0-42.1,18.9-42.1,42.1
					S297.8,170.4,321,170.4z"/>
				<circle id="XMLID_102_" class="st18" cx="321" cy="128.4" r="27.6"/>
				
					<linearGradient id="XMLID_90_" gradientUnits="userSpaceOnUse" x1="423.3812" y1="63.2509" x2="431.1359" y2="63.2509" gradientTransform="matrix(0.9815 0.1916 -0.1916 0.9815 -158.5452 45.5929)">
					<stop  offset="0" style="stop-color:#D59A74"/>
					<stop  offset="1" style="stop-color:#E6AE8A"/>
				</linearGradient>
				<path id="XMLID_101_" class="st25" d="M252.8,188.9c-0.3,0.1-1.2,1.2-1.6,1.4c-0.8,0.4-1.7,0.5-2.6,0.5
					c-1.2-0.1-4.1-0.6-3.6-2.3C247.6,188.7,250,189.5,252.8,188.9z"/>
				<path id="XMLID_46_" class="st26" d="M346.5,128.4c0,1.4-0.1,2.7-0.3,4.1c-0.5,2.9-1.4,5.7-2.8,8.1
					c-4.3,7.9-12.7,13.3-22.4,13.3c-14.1,0-25.5-11.4-25.5-25.5c0-10.7,6.6-19.8,15.9-23.6c2.6-1.1,5.4-1.7,8.4-1.9
					c0.4,0,0.8,0,1.2,0C335.1,102.9,346.5,114.3,346.5,128.4z"/>
				<path id="XMLID_47_" class="st27" d="M346.2,132.4c-0.5,2.9-1.4,5.7-2.8,8.1l-32-35.8c2.6-1.1,5.4-1.7,8.4-1.9L346.2,132.4z"/>
				<path id="XMLID_48_" class="st26" d="M199.3,128.4c0,1.4-0.1,2.7-0.3,4.1c-0.5,2.9-1.4,5.7-2.8,8.1
					c-4.3,7.9-12.7,13.3-22.4,13.3c-14.1,0-25.5-11.4-25.5-25.5c0-10.7,6.6-19.8,15.9-23.6c2.6-1.1,5.4-1.7,8.4-1.9
					c0.4,0,0.8,0,1.2,0C187.9,102.9,199.3,114.3,199.3,128.4z"/>
				<path id="XMLID_49_" class="st27" d="M199,132.4c-0.5,2.9-1.4,5.7-2.8,8.1l-32-35.8c2.6-1.1,5.4-1.7,8.4-1.9L199,132.4z"/>
			</g>
			<g id="XMLID_50_" class="st5">
				<g id="XMLID_51_">
					<path id="XMLID_95_" class="st7" d="M320.1,259.9c16.8-16.1,37.6-28.8,60.6-32.9c6.3-1.1,13.9-1.1,17.7,4c3,4,2.3,10-0.3,14.3
						c-2.6,4.3-6.8,7.4-10.9,10.3c-8.8,6.3-17.6,12.7-26.5,19c-12.7,9.1-25.4,18.3-38.1,27.4c-11.5,8.3-24.1,20.9-37.2,26.3
						c-7.9,3.3-18.5-1.4-14.5-10.7c3.2-7.7,12.9-13.6,18.1-19.9C299.4,285,308.1,271.5,320.1,259.9z"/>
					<path id="XMLID_52_" class="st6" d="M393.4,234.8c-8.8-0.8-17,3.6-23.8,8.8c-1.7,1.3-3.4,2.7-5.1,4.1c0-1.8,0.2-3.7,0.6-5.5
						c0.1-0.6,2.3-6.9,3.1-6.4c0.2,0.1,0.4-0.1,0.3-0.3c0-0.1-0.1-0.2-0.1-0.2c-0.1-0.1-0.2-0.2-0.3-0.2c-1.8,0-2.6,3.3-3.1,4.6
						c-1,2.8-1.4,5.7-1.3,8.7c-5.5,4.7-10.6,9.9-15.6,15.1c-7.7,7.9-15.1,16.1-22.9,24c0-1.9-0.4-3.9-0.6-5.8c-0.1-2-0.1-4,0-6
						c0.2-4.5,1.3-8.7,2.1-13c0.1-0.6-0.6-0.8-0.9-0.2c-1.6,4-2.2,8.5-2.5,12.8c-0.2,4.1-0.5,9.1,0.9,13c0,0.1,0,0.1,0.1,0.1
						c-5.9,5.9-12.1,11.6-18.7,16.8c-0.6,0.5-1.3,1-1.9,1.5c3.4-5.1,6.9-11.6,5.8-17.7c-0.1-0.4-0.7-0.3-0.7,0.1
						c-0.3,3.7-0.9,7.1-2.5,10.6c-1.3,2.9-3.1,5.5-4.7,8.2c-0.1,0.2-0.1,0.3-0.1,0.4c-3.1,2.3-6.3,4.4-9.7,6.3
						c-4.6,2.7-9.5,4.8-14.4,7.1c-0.5,0.2-0.1,1,0.4,0.9c8.6-2.4,16.7-7.7,23.9-12.9c7.4-5.3,14.3-11.4,20.8-17.7
						c11.9-11.6,22.8-24.3,34.7-35.9c3.9,2,9.1,2.3,13.4,2c3.2-0.2,8-0.3,9.8-3.4c0.2-0.4-0.3-0.7-0.6-0.5c-3,2.5-7.2,2.7-11,2.7
						c-3.8,0-7.3-0.9-11-1.5c2.3-2.2,4.5-4.3,6.9-6.4c8.1-7.2,17.4-13.9,28.6-13.7C393.8,235.4,393.8,234.9,393.4,234.8z"/>
					<path id="XMLID_53_" class="st6" d="M346.6,245.7c-1.6,3.9-2.8,7.8-3.5,12c-0.5,3.3-1.6,7.7-0.6,10.9c0.1,0.3,0.5,0.3,0.6,0
						c0.5-1.5,0.3-3.1,0.4-4.7c0.1-2.3,0.4-4.5,0.7-6.8c0.6-3.8,1.5-7.6,2.7-11.3C346.9,245.6,346.7,245.6,346.6,245.7z"/>
				</g>
				<g id="XMLID_54_">
					<path id="XMLID_91_" class="st8" d="M183.7,264.7c-13.9-13.7-32.7-22.8-55.6-22.3c-6.2,0.1-14.1,1.8-19.1,8.1
						c-4,5-4.6,11.2-2.7,15.2c1.8,4.1,5.5,6.4,9.1,8.7c7.8,4.9,15.5,9.8,23.3,14.7c11.2,7.1,22.3,14.1,33.5,21.2
						c10.1,6.4,20.5,17.2,32.8,20.2c7.5,1.8,19.4-5.5,17.3-14.6c-1.7-7.5-10.4-11.8-14.5-17.5C199.8,287.2,193.7,274.5,183.7,264.7z
						"/>
					<path id="XMLID_55_" class="st6" d="M195.7,313.2c-4.1-4.5-8.5-8.8-13-13c1.7-4,2.5-8.5,2.1-12.8c0-0.3-0.4-0.3-0.4,0
						c-0.2,4.3-0.9,8.3-2.2,12.3c-4.5-4.2-9.1-8.2-13.8-12c2.6-9.2,3.9-20.8-3-28.6c-0.4-0.5-1.1,0.2-0.7,0.7
						c6.4,8.2,4.7,17.9,3.2,27.4c-3.2-2.6-6.4-5.2-9.7-7.6c-3.3-2.5-6.7-5-10.2-7.3c0.4-2.9,0.4-5.9,0.2-8.8
						c-0.2-2.2-0.6-4.5-2.1-6.2c0,0,0,0,0,0c0,0,0,0,0,0c0,0,0-0.1-0.1-0.1c0,0,0,0,0,0c-0.3-0.3-0.9,0.1-0.7,0.5
						c2.4,4.5,1.7,9.2,1.8,14c-3.2-2.1-6.4-4.2-9.7-6.1c-1-0.6-1.9-1.1-2.9-1.6c0.4-2.8,0-5.8-0.8-8.5c-0.8-2.4-2-5.5-4.1-7.1
						c-0.3-0.2-0.7,0.1-0.6,0.4c1,2.4,2.7,4.4,3.5,7c0.8,2.5,1,5.1,0.9,7.7c-2.5-1.4-5-2.7-7.5-3.9c-3.8-1.9-7.9-3.8-12.1-4.5
						c-0.6-0.1-0.9,0.7-0.3,0.9c9.5,3,18.5,7.5,27,12.8c-1.7,2.2-3.4,4.1-5.8,5.5c-2.2,1.2-4.7,1.2-6.8,2.3
						c-0.3,0.1-0.2,0.5,0.1,0.6c2.3,0.8,5.6-0.9,7.6-2.1c2.3-1.4,4.5-3.4,5.7-5.9c2,1.2,3.9,2.5,5.8,3.8c0,0.2,0.3,0.4,0.5,0.3
						c3.4,2.3,6.8,4.7,10,7.2c1.5,1.2,3,2.3,4.5,3.5c-2,2.4-3.8,4.4-6.8,5.6c-2.4,1-5,1.5-7.6,1.9c-0.1-0.1-0.3,0-0.4,0.1
						c-0.1,0-0.1,0.1-0.2,0.1c-0.1,0.1-0.1,0.3-0.1,0.4c0,0.1,0,0.1,0,0.2c0,0.2,0.2,0.4,0.4,0.4c1.3,0.2,2.8-0.3,4-0.6
						c1.9-0.4,3.7-1,5.4-1.8c2.4-1.1,5.1-3.1,6-5.7c6.5,5.3,12.7,10.9,18.9,16.6c0,0.1,0.1,0.2,0.3,0.2c4.4,4.1,8.8,8.2,13.3,12.3
						C195.6,313.8,196,313.4,195.7,313.2z"/>
				</g>
				<path id="XMLID_88_" class="st7" d="M255,289.2c3.2-10.4,10-19.9,21.3-25.7c3.1-1.6,7.4-2.9,11.5-1.1c3.3,1.4,5.2,4.3,5.4,6.7
					c0.2,2.5-1,4.6-2.1,6.7c-2.5,4.5-5,8.9-7.5,13.4c-3.6,6.4-7.2,12.9-10.8,19.3c-3.3,5.8-5.4,13.9-10.7,18.6
					c-3.2,2.9-11,2.5-12.4-2.5c-1.2-4.2,2-8.5,2.4-12.4C253.1,304.5,252.7,296.7,255,289.2z"/>
				<g id="XMLID_56_">
					<path id="XMLID_87_" class="st7" d="M225.8,272.7c-4.5-14.7-14-28-30-36.2c-4.4-2.2-10.4-4-16.2-1.6c-4.6,1.9-7.3,6-7.6,9.5
						c-0.3,3.5,1.4,6.5,3,9.4c3.5,6.3,7,12.6,10.5,18.9c5.1,9.1,10.1,18.1,15.2,27.2c4.6,8.2,7.7,19.5,15.1,26.2
						c4.5,4.1,15.4,3.5,17.4-3.6c1.7-5.8-2.8-12-3.4-17.5C228.4,294.2,229,283.2,225.8,272.7z"/>
					<path id="XMLID_57_" class="st6" d="M219.4,311.8c-2.9-6.3-6.3-12.4-9.5-18.5c-3.2-6-5.9-12.2-8.5-18.5
						c-2.7-6.2-6-12.4-9.8-18.2c3.9-1.8,6.8-9.1,5.7-13.1c-0.1-0.3-0.5-0.3-0.6,0c-0.7,2.4-0.7,4.8-1.8,7.2c-0.9,2-2.6,3.5-3.7,5.4
						c-2.9-4.3-6.2-8.5-9.7-12.1c-0.2-0.2-0.6,0.1-0.4,0.3c3.7,5,7.6,9.7,10.9,15c3.5,5.5,6.5,11.2,9,17.2c1,2.5,2.1,5,3.3,7.5
						c-1.3-0.1-2.5-0.4-3.7-1.1c-1.1-0.6-1.8-1.7-2.8-2.3c-0.3-0.1-0.5,0.1-0.5,0.4c0.3,1.3,1.8,2.3,2.9,2.9
						c1.4,0.7,2.9,1.1,4.4,1.1c0,0,0,0,0.1,0c4.2,9.3,9,18.3,14.2,27.1C219.1,312.4,219.5,312.1,219.4,311.8z"/>
					<path id="XMLID_58_" class="st6" d="M196.7,267.7c-4.1-1.4-7-3.6-10.1-6.6c-0.3-0.3-0.8,0.1-0.6,0.5c2.3,3.5,6.5,6,10.5,6.9
						C197,268.7,197.2,267.9,196.7,267.7z"/>
				</g>
				<g id="XMLID_59_">
					<path id="XMLID_83_" class="st6" d="M250.9,289.5c1.3-2.6,3-5.2,2.8-8c-0.1-2.9-3.2-5.7-5.8-4.4c-1.6,0.8-2.2,2.8-3.7,3.8
						c-2.3,1.5-5.7-0.2-6.7-2.7c-1-2.6-0.3-5.5,0.9-8c1.2-2.5,2.8-4.7,3.7-7.3c0.9-2.6,0.9-5.8-1-7.8c-1.9-2-5.9-1.9-6.9,0.6
						c-0.4,1-0.3,2.2-1.1,3.1c-1.2,1.3-3.6,0.4-4.3-1.3c-0.7-1.6-0.4-3.5-0.2-5.2c0.7-8-3-16.3-9.5-21.1c-2-1.5-4.6-2.7-6.9-1.8
						c-3.4,1.2-4,5.8-3.5,9.4c0.8,5.2,2.8,10.3,6,14.5c1.3,1.8,2.9,3.5,3.9,5.5c1,2,1.5,4.4,0.6,6.5c-0.9,2.1-3.5,3.4-5.5,2.4
						c-2.2-1.1-3-4.5-5.5-4.8c-2.6-0.3-3.9,3.2-3.4,5.8c0.8,3.9,4,7.3,7.9,8.4c1.9,0.5,4,0.6,5.8,1.5c1.8,0.9,3.1,3.3,1.9,4.9
						c-1.1,1.6-3.6,1.3-5.5,1.8c-4.1,1-5.8,6.9-3,9.9c3.6,3.9,10.5,1.6,15,4.4c3,1.9,4.2,5.6,4.5,9.1c0.3,3.5,0,7,0.7,10.5
						c0.7,3.4,2.9,6.9,6.3,7.7c8.2,1.9,7.9-7.9,7.6-13.1C245.6,305.2,247,297,250.9,289.5z"/>
					<path id="XMLID_60_" class="st7" d="M232,293.6c-1-3.2-1.9-6.3-2.8-9.5c-0.4-1.3-0.7-2.5-1-3.8c4.3-5.6,7-12,8.1-19
						c0-0.2-0.3-0.3-0.3-0.1c-1.3,6.5-4.1,12.5-8.1,17.8c-1.3-4.9-2.4-9.8-3.4-14.7c-2.1-10.1-2.4-23.3-10.5-30.8
						c-0.4-0.3-0.9,0.2-0.6,0.6c4,4.3,5.9,9.7,7.1,15.3c1.2,5.8,2,11.7,3.3,17.5c0.9,4.2,1.9,8.4,3,12.6c-0.9-0.6-1.9-1-2.8-1.5
						c-1.6-0.8-3.1-1.7-4.6-2.6c-3-1.8-5.7-4.3-8.7-5.9c-0.3-0.2-0.6,0.2-0.4,0.5c2.2,2.7,5.6,4.7,8.4,6.6c2.3,1.4,5.1,3.6,7.8,4.3
						c-0.2,0.5,0.4,1,0.7,0.7c0.4,1.4,0.8,2.9,1.2,4.3c0.8,2.9,1.7,5.8,2.6,8.7c-1.3-0.9-3.3-1.1-4.6-1.5c-2.5-0.7-5.1-1.9-7.6-1
						c-0.3,0.1-0.2,0.5,0.1,0.5c4.1,0.1,8.7,2,12.4,3.7c0.1,0,0.2,0,0.3,0c0.8,2.6,1.6,5.3,2.8,7.7c0.3,0.5,1,0.1,0.9-0.4
						C234.5,300.2,233,296.9,232,293.6z"/>
				</g>
				<g id="XMLID_61_">
					<path id="XMLID_80_" class="st7" d="M253.9,279.8c8.3-12.4,19.6-23.3,33.4-29c3.8-1.6,8.5-2.6,11.6,0.1c2.5,2.1,2.8,5.9,1.8,9
						c-1.1,3.1-3.3,5.6-5.4,8c-4.6,5.2-9.3,10.4-13.9,15.6c-6.7,7.5-13.4,15-20.1,22.4c-6.1,6.8-12.2,16.4-19.7,21.6
						c-4.5,3.2-11.8,1.7-10.6-4.7c1-5.3,6.2-10.3,8.6-15C244.3,298.4,247.9,288.7,253.9,279.8z"/>
					<path id="XMLID_62_" class="st6" d="M291.4,258.6c-4,3-7.7,6.5-11.2,10.3c0.3-1.5,0.4-3.1,0.7-4.6c0.4-1.9,1.1-3.7,1.6-5.5
						c0.1-0.2-0.3-0.4-0.4-0.2c-1.8,3.1-3.3,7.7-2.9,11.3c0,0,0,0.1,0,0.1c-5.8,6.5-10.9,13.7-15.8,20.7c-0.5,0.7-1,1.4-1.5,2.1
						c0-0.1,0-0.3,0-0.4c0,0,0.1,0,0.1-0.1c1.1-2.4,0.7-5.6,1-8.3c0.4-3.3,1.1-6.6,1.4-9.9c0-0.3-0.5-0.4-0.6-0.1
						c-1.1,3-1.6,6.3-2,9.4c-0.3,2.6-1.3,6.2-0.4,8.7c-0.1,0.4-0.1,0.8,0,1.2c-3.3,4.7-6.7,9.5-10.1,14.1c0.3-1.4,0.1-3,0-4.4
						c-0.1-1.7-0.2-3.4-0.2-5.1c0-0.3-0.5-0.3-0.5,0c-0.2,3-0.9,6.7,0.1,9.6c0.1,0.2,0.3,0.2,0.4,0.2c-0.2,0.3-0.5,0.6-0.7,0.9
						c-2.4,3.2-4.9,6.3-7.8,9c-3,2.8-6.4,5-9.9,7.2c-0.2,0.1-0.1,0.6,0.2,0.4c6.8-2.6,12-8.1,16.4-13.7c2.8-3.5,5.4-7.1,8-10.7
						c0,0.1,0.1,0.2,0.2,0.2c1.9,0.7,4.5-1,5.9-2c0.2-0.2,0-0.5-0.2-0.4c-1,0.6-2,1-3.1,1.3c-0.8,0.2-1.7,0.2-2.5,0.5
						c1.5-2.1,3-4.3,4.5-6.4c3.2-4.5,6.4-9.1,9.7-13.5c3.3,0.4,7.1-1.4,9.7-3.2c0.2-0.1,0-0.4-0.2-0.3c-1.6,0.8-3.4,1.4-5.1,1.9
						c-1.2,0.3-2.5,0.4-3.7,0.7c1.1-1.4,2.2-2.8,3.3-4.2c4.8-6,10-11.2,15.6-16.4C291.8,258.7,291.6,258.5,291.4,258.6z"/>
				</g>
				<g id="XMLID_63_">
					<path id="XMLID_64_" class="st6" d="M295.9,295c9.8-12.1,18.9-25.7,20.5-41.1c0.3-3.2,0.3-6.5-0.8-9.6c-1.1-3-3.5-5.7-6.7-6.5
						c-3.2-0.8-6.6,0.4-9.2,2.5c-2.5,2.1-4.3,5-6,7.8c-9.4,15.7-17,32.5-22,50.1c-2.5,8.8-4.6,18-5.5,27.1
						c-0.9,9.7,8.3-2.8,10.1-5.4C282.1,311.2,289.3,303.3,295.9,295z"/>
					<path id="XMLID_65_" class="st7" d="M304.4,272.6c-2.2,2.4-4.3,4.9-6.8,7.1c-2.2,2-4.9,3.5-7.1,5.4c1.2-2.1,2.5-4.1,3.7-6.2
						c3.5-5.8,7.3-11.6,10.1-17.7c2.4-5.2,4.4-11.3,3.1-17.1c0-0.2-0.4-0.2-0.4,0c-0.1,6.9-1.6,12.8-4.8,18.9
						c-3.1,6-6.8,11.7-10.3,17.4c-3.6,5.9-7.2,11.8-10.8,17.7c-0.6,0.9-1.1,1.9-1.7,2.8c-0.4-1.5-0.9-2.9-1-4.5
						c-0.1-1.6,0-3.3,0.1-4.9c0-0.4-0.5-0.4-0.7-0.1c-1.1,3.2-0.6,7.6,0.9,10.6c-3,4.7-6,9.4-8.5,14.3c-0.3,0.7,0.6,1.2,1,0.6
						c4.3-5.9,7.7-12.7,11.5-19c2.4-3.9,4.7-7.8,7-11.8c0.1,0.1,0.2,0.1,0.3,0.1c2.9-1.1,5.6-3.6,7.8-5.7c2.5-2.3,5-4.8,6.8-7.7
						C304.9,272.6,304.6,272.4,304.4,272.6z"/>
				</g>
			</g>
			<linearGradient id="XMLID_92_" gradientUnits="userSpaceOnUse" x1="252.845" y1="334.6036" x2="252.845" y2="234.4155">
				<stop  offset="0" style="stop-color:#FFFFFF;stop-opacity:0"/>
				<stop  offset="1" style="stop-color:#FEA5AB"/>
			</linearGradient>
			<path id="XMLID_71_" class="st28" d="M398.4,231c-3.8-5.1-11.4-5.1-17.7-4c-22.9,4.1-43.7,16.8-60.6,32.9c-2.5,2.4-4.8,4.8-7,7.3
				c1.6-4.3,2.8-8.7,3.2-13.3c0.3-3.2,0.3-6.5-0.8-9.6c-1.1-3-3.5-5.7-6.7-6.5c-3.2-0.8-6.6,0.4-9.2,2.5c-2.5,2.1-4.3,5-6,7.8
				c-0.2,0.4-0.4,0.7-0.6,1.1c-2,0.2-4,0.8-5.8,1.5c-13.8,5.8-25.1,16.6-33.4,29c-0.1,0.2-0.2,0.4-0.4,0.6c-0.7-2.5-3.3-4.5-5.6-3.3
				c-1.6,0.8-2.2,2.8-3.7,3.8c-2.3,1.5-5.7-0.2-6.7-2.7c-1-2.6-0.3-5.5,0.9-8c1.2-2.5,2.8-4.7,3.7-7.3c0.9-2.6,0.9-5.8-1-7.8
				c-1.9-2-5.9-1.9-6.9,0.6c-0.4,1-0.3,2.2-1.1,3.1c-1.2,1.3-3.6,0.4-4.3-1.3c-0.7-1.6-0.4-3.5-0.2-5.2c0.7-8-3-16.3-9.5-21.1
				c-2-1.5-4.6-2.7-6.9-1.8c-3.4,1.2-4,5.8-3.5,9.4c0.5,3.6,1.7,7,3.3,10.3c-4.5-4.8-9.9-9-16.4-12.3c-4.4-2.2-10.4-4-16.2-1.6
				c-4.6,1.9-7.3,6-7.6,9.5c-0.3,3.5,1.4,6.5,3,9.4c1.1,2,2.2,4,3.3,6c-13.3-10.9-30.2-17.9-50.2-17.4c-6.2,0.1-14.1,1.8-19.1,8.1
				c-4,5-4.6,11.2-2.7,15.2c1.8,4.1,5.5,6.4,9.1,8.7c7.8,4.9,15.5,9.8,23.3,14.7c11.2,7.1,22.3,14.1,33.5,21.2
				c10.1,6.4,20.5,17.2,32.8,20.2c3.8,0.9,8.8-0.5,12.4-3.3c4,2.1,10.3,1.9,13.7-1.4c1.4,3.6,6.8,4.1,10.4,1.5c3-2.1,5.8-4.9,8.4-8
				c-0.5,1.7-0.7,3.4-0.2,5.1c1.4,5,9.2,5.4,12.4,2.5c1.8-1.6,3.2-3.7,4.5-5.8c-0.2,1.3-0.3,2.7-0.5,4c-0.6,5.8,2.5,3.7,5.4,0.5
				c2.8,3.4,8.8,4.6,13.8,2.5c13.1-5.5,25.7-18,37.2-26.3c12.7-9.1,25.4-18.3,38.1-27.4c8.8-6.3,17.6-12.7,26.5-19
				c4.1-2.9,8.3-6,10.9-10.3C400.7,241,401.4,235.1,398.4,231z M229.4,301.8c1.3,1.9,1.9,4.4,2.1,6.7c0.1,1.1,0.1,2.3,0.2,3.4
				c-0.8-2.3-1.7-4.6-2-6.8C229.6,304,229.5,302.9,229.4,301.8z"/>
		</g>
	</g>
</g>
<g id="DESIGNED_BY_FREEPIK">
</g>
</svg>
